# xmcd
#
# Track frame offsets:
#	150
#	24422
#	46140
#	60660
#	76982
#	87195
#	98282
#	112690
#	126480
#	137487
#	152050
#	163675
#	174302
#	187647
#	219785
#	229037
#	243307
#	254300
#	268480
#	287205
#
# Disc length: 3994
#
# Revision: 4
# Processed by: cddbd v1.5.1PL0 Copyright (c) Steve Scherf et al.
# Submitted via: CDex 1.50Beta7
# Normalized: r2:TDELIM( - ),TSWAP
#
DISCID=fa0f9814
DTITLE=Various Artist - Jazz and Big Band Volume One
DYEAR=1900
DGENRE=Jazz
TTITLE0=Louis Armstrong - On The Sunny Side Of The Street
TTITLE1=Duke Ellington - Everything Goes
TTITLE2=Miles Davis and Charlie Parker - Bird Of Paradise
TTITLE3=Fats Waller - Ain't Misbehavin'
TTITLE4=Jimmy Ruhsing - When My Dreamboat Comes Home
TTITLE5=Jimmy Witherspoon - St. Louis Blues
TTITLE6=Mildred Bailey - Me And The Blues
TTITLE7=Miles Davis - Mouse The Mooche
TTITLE8=Nat King Cole Trio - Sweet Georgia Brown
TTITLE9=Louis Armstrong - When The Saints Go Marching In
TTITLE10=Meade Lux Lewis - Darktown Strutters Ball
TTITLE11=Sidney Bechet - Jazz Me Blues
TTITLE12=Billie Holiday - My Man
TTITLE13=Charlie Parker - Street Beat
TTITLE14=Duke Ellington - Tip Toe Topic
TTITLE15=Jimmy Dorsey - St. Louis Blues
TTITLE16=Ella Fitzgerald - Flying Home
TTITLE17=Hoagy Carmichael and His Orchestra - Georgia On My Mind
TTITLE18=Charlie Parker - Slow Boat To China
TTITLE19=Ray Charles - Honey Honey
EXTD=
EXTT0=\n
EXTT1=
EXTT2=
EXTT3=
EXTT4=
EXTT5=
EXTT6=
EXTT7=
EXTT8=
EXTT9=
EXTT10=
EXTT11=
EXTT12=
EXTT13=
EXTT14=
EXTT15=
EXTT16=
EXTT17=
EXTT18=
EXTT19=
PLAYORDER=
